<svg xmlns="http://www.w3.org/2000/svg" viewBox="0 0 133 133"><defs><style>.cls-1{fill:#fff;}.cls-2{fill:none;}</style></defs><g id="Birch_Pattern_Overlay" data-name="Birch Pattern Overlay"><circle cx="66.5" cy="66.5" r="66.5"/><path class="cls-1" d="M115.18,106.11a6.29,6.29,0,0,0-1.14.41l-1.49.86c-1,.66-1.93,1.58-2.91,2.24-6,4.1-11,6.87-15,8.32a27.44,27.44,0,0,1-5.29,1.35c-.65.08-1.72.09-3.18.14q-5.43-.3-7.78-4.59a14.7,14.7,0,0,1-1.85-5.09A44.18,44.18,0,0,1,76.58,97a56.46,56.46,0,0,1,6.93-19.67,34.38,34.38,0,0,1,6.57-7.9,15.28,15.28,0,0,1,8-3.83c3.8-.49,7.73.74,9.46,3.91a11.79,11.79,0,0,1,0,8.84S106,82.43,106.21,84h0a.24.24,0,0,0,0,.08.84.84,0,0,0,0,.12,1.38,1.38,0,0,0,.06.16c.35.71,1.5,1.68,4.89-4.26q.27-.45.54-1c0-.07.07-.13.11-.21h0a16.91,16.91,0,0,0,1.53-5,14.44,14.44,0,0,0,.14-4.47,13.39,13.39,0,0,0-7.16-10.14,18.27,18.27,0,0,0-11.18-2C89.81,58,84.68,60.49,79.8,65a42.31,42.31,0,0,0-9,11.94,66.82,66.82,0,0,0-7.32,29,28,28,0,0,0,.2,4.64A28.75,28.75,0,0,0,67,120.7q5.77,10.64,19.07,11.53a24.48,24.48,0,0,0,4.37-.16,43.18,43.18,0,0,0,5.7-1.27c7.45-2.16,13.38-5.72,17.92-10.83a21.37,21.37,0,0,0,4.38-7.35,7.46,7.46,0,0,0,.27-3.1C118.4,107.29,116.89,105.89,115.18,106.11Z" transform="translate(-53 -8)"/><path class="cls-1" d="M183.14,93.9a11.58,11.58,0,0,0-1.93-5h0c-3.64-6.31-15.84-6.8-15.84-6.8l4.35-6.55c2.95-5,4.08-9.71,3.49-14.3a17.19,17.19,0,0,0-2.65-7.12c-1.83-2.83-4.78-5.11-8.74-6.87a35.88,35.88,0,0,0-8-2.41h.05l-.3,0a39.13,39.13,0,0,0-7.47-.55c-13.66-.21-15.32,4.86-15.32,4.86h0a4.16,4.16,0,0,0-.47,1.13,23,23,0,0,0-.36,3.78l0,.52c-1.31,14.73-5.17,62.58-.9,68.82v0a5.65,5.65,0,0,0,.95,1.29,5.93,5.93,0,0,0,5.05,2,5,5,0,0,0,4.22-3.47,10.24,10.24,0,0,0,.82-4c-.09-1.72-.08-4.78-.1-9-.19-2.5-.05-6.65-.35-12.07-.51-9.12-.71-15.89-.75-20.28A232.88,232.88,0,0,0,137.38,54h0l0-.07-.06-.51c-.05-.72-.31-2.46,1.18-2.35s4.27,0,6.38.09a48.4,48.4,0,0,1,5.8.55,30.59,30.59,0,0,1,3.73,1,19,19,0,0,1,6.91,4,6.75,6.75,0,0,1,2.12,4,7.45,7.45,0,0,1-.11,2.27,27.23,27.23,0,0,1-1.27,3.63,33.39,33.39,0,0,1-5.24,7.87c-4.31,4.81-7.87,8.2-10.95,10.19l-1.33,1a3,3,0,0,0-1,2.66,3.08,3.08,0,0,0,1.17,2.23h0a1.69,1.69,0,0,0,.48.26l0,0c.94.37,3.37.84,8.94-.28l2.48-.32h0c13.16-1.57,17.23.74,17.92,1.22a3.35,3.35,0,0,1,1.36,2.3,8.57,8.57,0,0,1-.51,3.26,14.38,14.38,0,0,1-3.61,5.12c-.62.65-1.26,1.26-1.91,1.86-.28.24-.6.51-.94.78-6.57,5.27-18.2,9.31-18.2,9.31h0c-4.69,1.29-4.4,3.31-4.4,3.31h0a1.84,1.84,0,0,0,0,.41l0,.13a3.66,3.66,0,0,0,.17.65,2,2,0,0,0,.15.37c.91,2.3,4.1,6.81,14.31,2.08.47-.2.93-.4,1.39-.63,1.18-.61,2.34-1.3,3.49-2l.61-.38h0a56,56,0,0,0,13.29-12.75A17.49,17.49,0,0,0,183,97.92,15.5,15.5,0,0,0,183.14,93.9Z" transform="translate(-53 -8)"/><path d="M119.85,118l14.78-1.37.27.5-14.82,1.29Z" transform="translate(-53 -8)"/><path d="M139,118.68l-11.57,1-.38-.73,11.77-.64Z" transform="translate(-53 -8)"/><path d="M129.32,74.86l13.57-1.34.16.26L129.6,75.3Z" transform="translate(-53 -8)"/><path d="M83.53,86.14,82.18,87H61.27L61,86.58l21.78-1.23Z" transform="translate(-53 -8)"/><path d="M65.4,75l21-.56.34.69-21.07.45Z" transform="translate(-53 -8)"/><path d="M89.58,78.05l-15.33.46-.44-1,15.56.08Z" transform="translate(-53 -8)"/><path d="M148.18,79.3l-15.27,1.37-.5-1,15.53-.84Z" transform="translate(-53 -8)"/><path d="M126.61,46.48l21,0,.33.7-21.08-.09Z" transform="translate(-53 -8)"/><path d="M119.68,97.87,140.82,97l.27,1.1-21.17.67Z" transform="translate(-53 -8)"/><path d="M117.1,122.14l-1.35.86H94.84l-.26-.42,21.78-1.23Z" transform="translate(-53 -8)"/><path d="M108,113.87l17.77-.34.27.69-17.81.23Z" transform="translate(-53 -8)"/><path d="M117.14,111.58,101.86,113l-.5-1,15.54-.84Z" transform="translate(-53 -8)"/><path d="M112.88,123.76l21.15-.28.24,1.11-21.18.11Z" transform="translate(-53 -8)"/><path d="M144.24,83.22H156l0,1H144.23Z" transform="translate(-53 -8)"/><path d="M179.4,69.53l-9.74,0V68.34l9.76-.14Z" transform="translate(-53 -8)"/><path d="M184.28,89H173.91l0-1.24,10.27.62Z" transform="translate(-53 -8)"/><path d="M156,62l13.54-.11v1L156,62.88Z" transform="translate(-53 -8)"/><path d="M171.5,52.66l-11.43-.52v-.61l11.44,0Z" transform="translate(-53 -8)"/><path d="M93.52,58.52l14.84.4.21.53L93.69,59Z" transform="translate(-53 -8)"/><path d="M113.86,62.6,103,62.75l-.29-.75,11,.26Z" transform="translate(-53 -8)"/><path d="M143.06,118l13.53-.19,0,1-13.53.13Z" transform="translate(-53 -8)"/><path d="M152.79,111l13.63,0,.13.29-13.53.13Z" transform="translate(-53 -8)"/><path d="M67.37,103.4l13.63,0,.13.29-13.53.12Z" transform="translate(-53 -8)"/><path d="M65.55,106.22l21.15-.11.23,1.11-21.18-.07Z" transform="translate(-53 -8)"/><path d="M68.55,64.27l21.15-.11.24,1.12-21.19-.07Z" transform="translate(-53 -8)"/><path d="M132.68,105.06l13.61-.82.15.28-13.5,1Z" transform="translate(-53 -8)"/><path d="M130.66,107.82h11.77l0,1H130.65Z" transform="translate(-53 -8)"/><path d="M138.51,61.74l-11.44.43,0-.62,11.41-.89Z" transform="translate(-53 -8)"/><path d="M152,75.45l13.63-.14.14.28-13.54.32Z" transform="translate(-53 -8)"/><path d="M108.48,80.77l13.63.19.13.29-13.54,0Z" transform="translate(-53 -8)"/><path d="M98.56,73l21,.31.31.71-21.07-.43Z" transform="translate(-53 -8)"/><path d="M91.87,129.34l13.6-.81.16.27-13.51,1Z" transform="translate(-53 -8)"/><path d="M57.64,94.12,71.27,94l.14.28-13.54.31Z" transform="translate(-53 -8)"/><path d="M118.64,87.12,132.27,87l.14.28-13.54.31Z" transform="translate(-53 -8)"/><path d="M165,85.68l15.89-.17.17.28-15.77.35Z" transform="translate(-53 -8)"/><path d="M179.05,98.77l-9.74-.16V97.46l9.77,0Z" transform="translate(-53 -8)"/><path d="M123.18,48.87l13.63-.14L137,49l-13.53.32Z" transform="translate(-53 -8)"/><path d="M133.94,65.45l-9.74.31,0-1.15,9.75-.49Z" transform="translate(-53 -8)"/><path d="M163.55,71.91l-15.27,1.38-.5-1,15.53-.85Z" transform="translate(-53 -8)"/><path d="M139.84,88.1l15.89-.17.17.28-15.77.34Z" transform="translate(-53 -8)"/><path d="M143.74,93.91l-9.74,0V92.71l9.76-.14Z" transform="translate(-53 -8)"/><path d="M154.13,48.72l13.63-.14.14.28-13.54.32Z" transform="translate(-53 -8)"/><path d="M133.13,55.72l13.63-.14.14.28-13.54.32Z" transform="translate(-53 -8)"/><path d="M140.71,121.81l13.63-.14.14.28-13.54.31Z" transform="translate(-53 -8)"/><path d="M165.85,58.65l13.63-.14.14.28-13.54.32Z" transform="translate(-53 -8)"/><path d="M174,78.82,158.75,80.2l-.5-1,15.53-.85Z" transform="translate(-53 -8)"/><path d="M87.54,97,72.27,98.36l-.5-1,15.53-.84Z" transform="translate(-53 -8)"/><path d="M68.77,69.3l13.63-.14.14.28L69,69.76Z" transform="translate(-53 -8)"/><path d="M109.54,67,94.27,68.36l-.5-1,15.53-.84Z" transform="translate(-53 -8)"/><path d="M81.62,61.32l15.9-.17.17.28-15.78.35Z" transform="translate(-53 -8)"/><path d="M103,118H92.63l0-1.24,10.28.62Z" transform="translate(-53 -8)"/><path d="M112.67,127.33l-9.74-.16V126l9.76,0Z" transform="translate(-53 -8)"/><path class="cls-2" d="M161.23,115.72l-.22-.46,10.86.19a65,65,0,0,0,5.64-8.45h-5.64c-.08-.14-.17-.28-.26-.42l6.35-.36c.32-.59.62-1.19.92-1.79h-3l-.22-.47,3.44,0a66.65,66.65,0,1,0-7.47,11.76Z" transform="translate(-53 -8)"/><path d="M171.87,107h5.64c.15-.26.31-.51.45-.78l-6.35.36C171.7,106.72,171.79,106.86,171.87,107Z" transform="translate(-53 -8)"/><path d="M161.23,115.72l10.39,0a3.92,3.92,0,0,0,.25-.32L161,115.26Z" transform="translate(-53 -8)"/><path d="M175.87,104.44h3l.21-.42-3.44,0Z" transform="translate(-53 -8)"/><path class="cls-2" d="M119.5,8a66.48,66.48,0,0,0-52,107.94l4,0,.24,1.11H68.38c.44.52.89,1,1.35,1.55l6.55-.07.14.28-6.38.15a63,63,0,0,0,4.53,4.57l9.28,0,.14.28-9,.08a63.74,63.74,0,0,0,5.35,4.34l5.46.12.24.7-4.73-.13A66.5,66.5,0,1,0,119.5,8Z" transform="translate(-53 -8)"/><path d="M76.28,118.51l-6.55.07.31.36,6.38-.15Z" transform="translate(-53 -8)"/><path d="M85.82,128.37l-5.46-.12c.32.24.65.46,1,.69l4.73.13Z" transform="translate(-53 -8)"/><path d="M71.51,115.92l-4,0c.29.36.57.73.87,1.09h3.37Z" transform="translate(-53 -8)"/><path d="M83.85,123.55l-9.28,0c.14.14.29.27.44.4l9-.08Z" transform="translate(-53 -8)"/></g></svg>