<?xml version="1.0" standalone="no"?>
<!DOCTYPE svg PUBLIC "-//W3C//DTD SVG 20010904//EN"
 "http://www.w3.org/TR/2001/REC-SVG-20010904/DTD/svg10.dtd">
<svg version="1.0" xmlns="http://www.w3.org/2000/svg"
 width="176.000000pt" height="176.000000pt" viewBox="0 0 176.000000 176.000000"
 preserveAspectRatio="xMidYMid meet">

<g transform="translate(0.000000,176.000000) scale(0.100000,-0.100000)"
 stroke="none">
<path d="M740 1744 c-291 -56 -515 -223 -644 -481 -57 -114 -77 -200 -83 -350
-5 -113 -2 -146 16 -227 36 -153 112 -295 220 -410 54 -56 178 -153 186 -144
2 2 7 52 11 110 l7 107 61 3 c46 2 61 7 61 18 0 11 -15 16 -62 18 l-63 3 0 74
c0 68 2 74 22 77 29 4 35 28 9 35 -22 6 -27 39 -15 101 6 31 7 31 78 34 55 2
71 6 71 18 0 12 -16 16 -74 18 -70 3 -73 4 -67 25 3 12 6 52 6 89 l0 67 53 3
c38 2 52 7 52 18 0 11 -14 16 -52 18 -42 2 -53 7 -54 20 0 9 -3 49 -7 89 l-8
72 36 3 c50 4 48 32 -2 36 -30 3 -38 7 -38 22 0 16 9 19 58 22 43 2 57 7 57
18 0 11 -16 16 -60 20 l-60 5 27 28 c31 31 57 33 143 11 39 -10 138 -18 280
-24 160 -6 235 -13 275 -25 84 -26 82 -30 -19 -35 -63 -3 -96 -9 -99 -17 -3
-10 25 -13 115 -13 65 0 123 -4 129 -8 18 -11 34 -48 34 -76 0 -25 -3 -26 -55
-26 -42 0 -55 -3 -55 -15 0 -11 12 -15 50 -15 41 0 50 -3 50 -17 0 -29 -71
-148 -140 -238 l-65 -84 -73 -1 c-64 0 -73 -2 -70 -17 2 -14 15 -19 56 -21 45
-3 52 -5 42 -18 -10 -11 -8 -14 11 -14 52 -1 214 -21 249 -31 20 -6 47 -19 61
-30 24 -18 23 -19 -93 -19 -98 0 -118 -3 -118 -15 0 -13 22 -15 134 -15 l134
0 12 -36 c15 -44 8 -125 -17 -209 l-19 -60 -74 -5 c-58 -4 -75 -8 -75 -20 0
-12 16 -16 68 -18 l68 -3 60 58 c121 115 212 275 250 439 18 81 21 114 16 227
-6 150 -26 236 -83 350 -92 183 -217 308 -401 400 -119 60 -199 79 -358 82
-77 2 -151 1 -165 -1z"/>
<path d="M685 1259 c-40 -11 -100 -73 -92 -93 4 -10 18 -16 37 -16 74 0 167
93 114 114 -18 7 -20 7 -59 -5z"/>
<path d="M846 1241 c-10 -15 21 -33 51 -29 17 2 29 10 31 21 3 14 -4 17 -37
17 -22 0 -42 -4 -45 -9z"/>
<path d="M820 1163 c-68 -10 -166 -37 -172 -47 -4 -6 -8 -109 -8 -228 l0 -218
-65 0 c-51 0 -65 -3 -65 -15 0 -12 14 -15 64 -15 l63 0 7 -77 c3 -42 6 -118 6
-170 l0 -93 -31 0 c-44 0 -37 -34 9 -38 l32 -3 0 -114 0 -113 72 -12 c81 -14
293 -8 348 9 62 20 202 221 216 312 6 38 7 39 50 39 37 0 44 3 44 20 0 17 -7
20 -46 20 -37 0 -50 5 -66 25 -40 51 -107 54 -319 14 -59 -11 -133 -19 -165
-17 -53 3 -59 5 -56 23 9 52 48 103 202 260 180 184 219 241 222 327 3 54 -11
74 -67 99 -31 15 -63 18 -145 17 -58 0 -116 -2 -130 -5z"/>
<path d="M515 1049 c-11 -16 15 -30 50 -27 19 2 30 9 30 18 0 19 -70 27 -80 9z"/>
<path d="M1140 905 c0 -13 9 -16 43 -13 23 2 42 8 42 13 0 6 -19 11 -42 13
-34 3 -43 0 -43 -13z"/>
<path d="M909 597 c-18 -12 -40 -35 -49 -50 -13 -24 -13 -29 0 -37 45 -30 181
57 156 99 -12 19 -71 12 -107 -12z"/>
<path d="M533 79 c43 -23 92 -22 92 1 0 12 -15 16 -65 17 l-65 3 38 -21z"/>
<path d="M1205 89 c-12 -19 2 -21 32 -5 l28 15 -27 1 c-15 0 -30 -5 -33 -11z"/>
</g>
</svg>
